<?xml version="1.0" encoding="UTF-8" standalone="no"?>
<!-- Generator: Adobe Illustrator 24.2.2, SVG Export Plug-In . SVG Version: 6.00 Build 0) -->

<svg
   version="1.1"
   id="Layer_1"
   x="0px"
   y="0px"
   viewBox="0 0 139.66436 52.857144"
   xml:space="preserve"
   width="195.53011"
   height="74"
   sodipodi:docname="logo.svg"
   inkscape:version="1.2.2 (732a01da63, 2022-12-09)"
   xmlns:inkscape="http://www.inkscape.org/namespaces/inkscape"
   xmlns:sodipodi="http://sodipodi.sourceforge.net/DTD/sodipodi-0.dtd"
   xmlns:xlink="http://www.w3.org/1999/xlink"
   xmlns="http://www.w3.org/2000/svg"
   xmlns:svg="http://www.w3.org/2000/svg"><sodipodi:namedview
   id="namedview61"
   pagecolor="#ffffff"
   bordercolor="#000000"
   borderopacity="0.25"
   inkscape:showpageshadow="2"
   inkscape:pageopacity="0.0"
   inkscape:pagecheckerboard="0"
   inkscape:deskcolor="#d1d1d1"
   showgrid="false"
   inkscape:zoom="11.313708"
   inkscape:cx="110.88319"
   inkscape:cy="79.991458"
   inkscape:window-width="4480"
   inkscape:window-height="2396"
   inkscape:window-x="3572"
   inkscape:window-y="-12"
   inkscape:window-maximized="1"
   inkscape:current-layer="g1128" /><defs
   id="defs67"><linearGradient
     id="linearGradient1483"><stop
       style="stop-color:#00a0ff;stop-opacity:1;"
       offset="0"
       id="stop1479" /><stop
       style="stop-color:#00a0ff;stop-opacity:0;"
       offset="1"
       id="stop1481" /></linearGradient><linearGradient
     xlink:href="#linearGradient1483"
     id="linearGradient1485"
     x1="176.83051"
     y1="-9.6101971"
     x2="285.08948"
     y2="-9.6101971"
     gradientUnits="userSpaceOnUse" /><linearGradient
     xlink:href="#linearGradient1483"
     id="linearGradient1487"
     x1="177.42062"
     y1="10.464906"
     x2="285.65118"
     y2="10.464906"
     gradientUnits="userSpaceOnUse" /></defs> <style
   type="text/css"
   id="style2"> .st0{fill:#00A0FF;} </style>     <g
   id="g2354"
   transform="scale(0.66057471)"><g
     id="g1405"
     transform="scale(0.53208058)"><g
       id="g18329"
       transform="matrix(0.39953444,0,0,0.40193456,350.78022,132.531)"><g
         id="g1926"
         transform="translate(15.486621,1.337334)"><g
           id="g1133"
           transform="matrix(1.4833581,0,0,1.4833581,-80.604268,-1.3530405)"><g
             id="g10"> <path
   d="m 12.52,0.27 c 3.21,0 8.44,1.38 8.44,4.78 V 6.91 H 18.84 V 5.66 c 0,-2.12 -3.66,-3.27 -6.26,-3.27 -5.01,0 -8.86,3.91 -8.86,9.37 0,5.39 3.82,9.72 8.95,9.72 4.65,0 7.38,-3.18 7.38,-3.18 l 1.28,1.64 c 0,0 -3.11,3.66 -8.7,3.66 C 6.02,23.6 1.37,18.34 1.37,11.76 1.39,5.24 6.17,0.27 12.52,0.27 Z"
   id="path4" /> <path
   d="m 33.61,13.27 h 0.9 v -0.19 c 0,-3.37 -1.22,-4.56 -4.17,-4.56 -0.8,0 -3.14,0.22 -3.14,1.41 v 1.03 H 25.11 V 9.42 c 0,-2.25 3.85,-2.73 5.26,-2.73 5.1,0 6.32,2.73 6.32,6.19 v 7.73 c 0,0.48 0.26,0.71 0.71,0.71 h 1.35 v 1.89 h -2.21 c -1.38,0 -1.93,-0.61 -1.93,-1.93 0,-0.71 0.03,-1.19 0.03,-1.19 h -0.06 c 0.03,0 -1.32,3.5 -5.36,3.5 -2.7,0 -5.49,-1.57 -5.49,-4.78 0,-5.35 7.09,-5.54 9.88,-5.54 z m -4.04,8.47 c 3.08,0 4.94,-3.21 4.94,-6 V 15 h -0.93 c -2.54,0 -7.61,0.06 -7.61,3.69 0,1.51 1.19,3.05 3.6,3.05 z"
   id="path6" /> <path
   d="M 42.18,3.25 C 42.18,2.8 41.92,2.54 41.47,2.54 H 40.12 V 0.66 h 2.28 c 1.38,0 1.96,0.58 1.96,1.96 v 18 c 0,0.48 0.26,0.71 0.71,0.71 h 1.35 v 1.89 h -2.28 c -1.38,0 -1.96,-0.58 -1.96,-1.96 z"
   id="path8" /> </g><g
             id="g14"
             style="fill:#49a7f7;fill-opacity:1;stroke-width:1.00164;stroke-dasharray:none"> <path
   class="st0"
   d="m 50.97,28 c 1.41,0 2.37,-1.16 2.98,-2.63 L 54.91,23.16 49.24,9.7 C 48.98,9.12 48.7,8.96 48.12,8.96 H 47.8 V 7.07 h 1 c 1.44,0 1.89,0.32 2.47,1.77 l 4.14,10.08 c 0.32,0.8 0.58,1.73 0.58,1.73 h 0.06 c 0,0 0.22,-0.93 0.55,-1.73 L 60.58,8.84 c 0.54,-1.44 1.03,-1.77 2.5,-1.77 h 0.99 v 1.89 h -0.32 c -0.58,0 -0.9,0.16 -1.12,0.74 l -6.96,16.88 c -0.83,2.05 -2.47,3.37 -4.62,3.37 -2.25,0 -3.5,-1.57 -3.5,-1.57 l 1.03,-1.6 C 48.57,26.81 49.59,28 50.97,28 Z"
   id="path12"
   style="fill:#49a7f7;fill-opacity:1;stroke-width:1.00164;stroke-dasharray:none" /> </g><g
             id="g22"> <path
   d="m 67.37,9.67 c 0,-0.45 -0.26,-0.71 -0.71,-0.71 H 65.31 V 7.07 h 2.21 c 1.38,0 1.92,0.58 1.92,1.7 0,0.64 -0.03,1.09 -0.03,1.09 h 0.06 c 0,0 1.28,-3.18 5.55,-3.18 4.33,0 7.03,3.47 7.03,8.47 0,5.1 -3.05,8.44 -7.22,8.44 -3.95,0 -5.29,-3.05 -5.29,-3.05 h -0.06 c 0,0 0.06,0.58 0.06,1.41 v 7.67 H 67.36 V 9.67 Z m 7.25,12 c 2.86,0 5.2,-2.41 5.2,-6.51 0,-3.95 -2.09,-6.48 -5.1,-6.48 -2.7,0 -5.23,1.93 -5.23,6.51 0,3.24 1.76,6.48 5.13,6.48 z"
   id="path16" /> <path
   d="m 85.6,19.27 c 0,0 1.8,2.44 4.97,2.44 1.8,0 3.4,-0.87 3.4,-2.57 0,-3.53 -9.05,-2.89 -9.05,-8.09 0,-2.92 2.5,-4.36 5.74,-4.36 1.64,0 4.91,0.64 4.91,2.92 v 1.38 h -2.05 v -0.77 c 0,-1.19 -1.73,-1.64 -2.79,-1.64 -2.25,0 -3.59,0.77 -3.59,2.34 0,3.63 9.05,2.79 9.05,8.15 0,2.7 -2.44,4.52 -5.65,4.52 -4.2,0 -6.19,-2.82 -6.19,-2.82 z"
   id="path18" /> <path
   d="m 107.33,6.69 c 4.72,0 8.54,3.59 8.54,8.38 0,4.88 -3.82,8.54 -8.5,8.54 -4.72,0 -8.54,-3.66 -8.54,-8.54 -0.01,-4.79 3.81,-8.38 8.5,-8.38 z m 0.03,14.95 c 3.43,0 6.26,-2.82 6.26,-6.58 0,-3.66 -2.82,-6.39 -6.26,-6.39 -3.47,0 -6.29,2.73 -6.29,6.39 0,3.76 2.82,6.58 6.29,6.58 z"
   id="path20" /> </g></g><g
           aria-label="®"
           transform="matrix(0.05347351,0,0,0.0531542,89.383702,14.833395)"
           id="text403"
           style="font-weight:600;font-size:162.281px;font-family:'Open Sans';-inkscape-font-specification:'Open Sans Semi-Bold';fill:#49a7f7;stroke:#000000;stroke-width:1.51631"><path
             d="M 136.69731,-23.094444 V -94.3301 h 21.15675 q 13.0744,0 19.25503,5.467475 6.18062,5.388237 6.18062,15.847755 0,7.686161 -3.8827,12.123532 -3.8827,4.437371 -8.87474,6.418341 l 18.77959,31.378553 h -13.86679 l -15.92699,-27.73357 h -10.45952 v 27.73357 z m 12.36125,-37.796894 h 8.39931 q 6.49758,0 9.90485,-3.24879 3.4865,-3.248789 3.4865,-8.557787 0,-5.942908 -3.16955,-8.557788 -3.16955,-2.614879 -10.38028,-2.614879 h -8.24083 z m 10.14256,61.88548119 q -12.91592,0 -23.85087,-4.43737129 -10.85571,-4.4373712 -18.93806,-12.4404869 -8.00312,-8.003116 -12.44049,-18.858828 -4.358133,-10.934951 -4.358133,-23.771632 0,-12.678203 4.437373,-23.533915 4.51661,-10.855712 12.59896,-18.93807 8.08236,-8.08235 18.93807,-12.59896 10.85571,-4.51661 23.61315,-4.51661 12.44049,0 23.21696,4.43737 10.85572,4.43737 19.01731,12.51973 8.16159,8.003112 12.75744,18.858823 4.59585,10.855712 4.59585,23.771632 0,12.836681 -4.43737,23.771632 -4.35813,10.855712 -12.44049,18.858828 -8.00311,8.0031157 -18.93806,12.4404869 -10.85572,4.43737129 -23.77164,4.43737129 z m 0,-9.27093639 q 10.30104,0 19.25503,-3.6449838 8.95398,-3.724222 15.76851,-10.459518 6.81454,-6.814534 10.618,-16.006232 3.8827,-9.191697 3.8827,-20.126648 0,-10.380279 -3.72423,-19.492738 -3.64498,-9.112459 -10.38028,-16.085471 -6.65605,-6.973016 -15.68927,-10.855716 -9.03322,-3.96193 -19.73046,-3.96193 -10.69723,0 -19.80969,3.72422 -9.03322,3.72422 -15.76852,10.538755 -6.73529,6.735296 -10.45951,15.926993 -3.64499,9.191698 -3.64499,20.205887 0,10.697234 3.64499,19.888932 3.64498,9.112459 10.30104,15.926993 6.65605,6.814535 15.76851,10.617996 9.11246,3.8034608 19.96817,3.8034608 z"
             style="fill:#000000;stroke:none"
             id="path1135" /></g></g></g><text
       xml:space="preserve"
       style="font-size:8.57143px;fill:#000000;stroke-width:0.714286"
       x="162.61522"
       y="67.148087"
       id="text323"><tspan
         sodipodi:role="line"
         id="tspan321"
         style="stroke-width:0.714286"
         x="162.61522"
         y="67.148087" /></text><g
       id="g1128"
       transform="matrix(2.1276141,0,0,2.1276141,-586.18869,-476.96737)"><g
         aria-label="OpenSam"
         id="text381"
         style="font-size:22.8571px;letter-spacing:1.42857px;fill:#000000;fill-opacity:1;stroke-width:0.714286"
         transform="matrix(1.0018764,0,0,1,348.34401,237.84352)"><path
           d="m 15.270294,8.3928413 q 0,1.8861567 -0.47991,3.4374937 -0.468749,1.540175 -1.417408,2.656245 -0.948659,1.104908 -2.377227,1.707586 -1.4285691,0.602677 -3.3482084,0.602677 -1.9531213,0 -3.3928507,-0.602677 Q 2.8261212,15.591488 1.8774623,14.475419 0.93996407,13.35935 0.47121496,11.808013 0.00246584,10.256677 0.00246584,8.3705199 q 0,-2.5223166 0.8258913,-4.3973131 Q 1.6654091,2.0870497 3.3618345,1.0491052 5.0694205,7.9162419e-8 7.669862,7.9162419e-8 q 2.544638,0 4.229903,1.037944420837581 1.685264,1.0379445 2.522316,2.9241016 0.848213,1.8749965 0.848213,4.4307952 z m -12.4553335,0 q 0,1.8861567 0.5133919,3.2700827 0.5133919,1.372766 1.5736577,2.120532 1.0714266,0.736606 2.7455305,0.736606 1.6852647,0 2.7455304,-0.736606 1.060266,-0.747766 1.562497,-2.120532 0.502231,-1.383926 0.502231,-3.2700827 0,-2.8682981 -1.149551,-4.4865986 -1.138391,-1.6294612 -3.638386,-1.6294612 -1.6741039,0 -2.7566912,0.7366057 Q 3.8417443,3.749993 3.3283524,5.1227582 2.8149605,6.4843628 2.8149605,8.3928413 Z"
           style="font-weight:600;font-family:'Open Sans';-inkscape-font-specification:'Open Sans Semi-Bold';fill:#000000;fill-opacity:1"
           id="path584" /><path
           d="m 26.274739,3.9843675 q 2.198656,0 3.526779,1.6071398 1.339283,1.6071398 1.339283,4.7767767 0,2.09821 -0.624999,3.53794 -0.613838,1.428568 -1.729907,2.165174 -1.104909,0.725445 -2.57812,0.725445 -0.937499,0 -1.629462,-0.245535 -0.691963,-0.245535 -1.183033,-0.63616 -0.491071,-0.401784 -0.825891,-0.870534 h -0.15625 q 0.0558,0.446428 0.100446,0.993302 0.0558,0.535713 0.0558,0.982141 v 5.033473 h -2.63392 V 4.2187421 h 2.142853 l 0.368303,1.707586 h 0.122768 Q 22.91537,5.4017756 23.406441,4.9553478 23.908672,4.5089201 24.611796,4.2522242 25.32608,3.9843675 26.274739,3.9843675 Z m -0.703124,2.1428531 q -1.082587,0 -1.741068,0.435267 -0.64732,0.4241064 -0.948659,1.2834798 -0.290178,0.8593733 -0.312499,2.1540137 v 0.3683029 q 0,1.372765 0.279017,2.332585 0.290178,0.948659 0.948659,1.45089 0.669642,0.49107 1.808032,0.49107 0.95982,0 1.584819,-0.524552 0.636159,-0.524553 0.948659,-1.495533 0.312499,-0.97098 0.312499,-2.287942 0,-1.9977642 -0.714284,-3.1026728 -0.703124,-1.1049086 -2.165175,-1.1049086 z"
           style="font-weight:600;font-family:'Open Sans';-inkscape-font-specification:'Open Sans Semi-Bold';fill:#000000;fill-opacity:1"
           id="path586" /><path
           d="m 40.515786,3.9843675 q 1.651782,0 2.834816,0.6808023 1.183033,0.6808023 1.819193,1.9307999 0.636159,1.2499977 0.636159,2.9910658 v 1.4062475 h -8.247752 q 0.04464,1.796871 0.95982,2.767852 0.926337,0.97098 2.58928,0.97098 1.183034,0 2.120532,-0.223214 0.948659,-0.234374 1.953121,-0.680802 v 2.131692 q -0.926337,0.435267 -1.886157,0.63616 -0.959819,0.200892 -2.299103,0.200892 -1.819192,0 -3.203118,-0.703123 -1.372766,-0.714285 -2.154014,-2.120532 -0.770088,-1.406247 -0.770088,-3.493297 0,-2.075889 0.703124,-3.5267791 0.703123,-1.4508901 1.975442,-2.2098172 1.272319,-0.7589272 2.968745,-0.7589272 z m 0,1.9754427 q -1.238837,0 -2.008925,0.8035699 -0.758927,0.8035699 -0.892856,2.3549063 h 5.62499 Q 43.227834,8.1919488 42.926495,7.4776645 42.636317,6.7633801 42.03364,6.3615952 41.442123,5.9598102 40.515786,5.9598102 Z"
           style="font-weight:600;font-family:'Open Sans';-inkscape-font-specification:'Open Sans Semi-Bold';fill:#000000;fill-opacity:1"
           id="path588" /><path
           d="m 56.631826,3.9843675 q 2.08705,0 3.247762,1.0825873 1.171873,1.0714265 1.171873,3.4486541 V 16.573629 H 58.428698 V 9.0066794 q 0,-1.4397294 -0.591517,-2.1540137 -0.591516,-0.7254451 -1.830353,-0.7254451 -1.796872,0 -2.499996,1.1049086 -0.691963,1.1049086 -0.691963,3.2031188 v 6.138381 H 50.192107 V 4.2187421 h 2.042406 l 0.368303,1.674104 h 0.145089 Q 53.14969,5.2455259 53.741207,4.8325802 54.343884,4.4084739 55.08049,4.1964207 55.828257,3.9843675 56.631826,3.9843675 Z"
           style="font-weight:600;font-family:'Open Sans';-inkscape-font-specification:'Open Sans Semi-Bold';fill:#000000;fill-opacity:1"
           id="path590" /><path
           d="m 75.828219,12.131674 q 0,1.45089 -0.714284,2.499995 -0.703124,1.049105 -2.031246,1.60714 -1.316962,0.558034 -3.147316,0.558034 -0.892855,0 -1.707586,-0.100446 -0.81473,-0.100446 -1.540175,-0.290178 -0.714285,-0.200892 -1.305801,-0.47991 v -2.522316 q 0.993301,0.435267 2.220978,0.792409 1.227676,0.345981 2.499995,0.345981 1.037944,0 1.718747,-0.267856 0.691963,-0.279018 1.026783,-0.781249 0.334821,-0.513392 0.334821,-1.194194 0,-0.725445 -0.390624,-1.227676 Q 72.401887,10.569176 71.609477,10.156231 70.828229,9.7321245 69.645195,9.2522147 68.841626,8.9285546 68.10502,8.5156089 67.379575,8.1026633 66.810379,7.5446286 66.241184,6.986594 65.906363,6.2276668 65.582703,5.457579 65.582703,4.4196346 q 0,-1.383926 0.658481,-2.366067 0.669642,-0.982141 1.874996,-1.50669356 1.216516,-0.52455257 2.834817,-0.52455257 1.283479,0 2.410709,0.26785663 1.138391,0.26785664 2.232139,0.7589271 L 74.745632,3.203119 Q 73.74117,2.7901734 72.792511,2.5446381 71.855013,2.2991029 70.872872,2.2991029 q -0.848213,0 -1.43973,0.2566959 -0.591516,0.2566959 -0.904016,0.7254451 -0.301339,0.4575884 -0.301339,1.0937479 0,0.7142843 0.345982,1.2053548 0.357142,0.4799098 1.093748,0.8816948 0.747766,0.401785 1.919639,0.8928555 1.350444,0.5580346 2.287942,1.1718727 0.948659,0.6138382 1.45089,1.4732115 0.502231,0.8482129 0.502231,2.1316929 z"
           style="font-weight:600;font-family:'Open Sans';-inkscape-font-specification:'Open Sans Semi-Bold';fill:#000000;fill-opacity:1"
           id="path592" /><path
           d="M 90.515696,16.573629 88.919717,12.042388 H 82.68089 l -1.595979,4.531241 H 78.261255 L 84.332672,0.18973186 h 2.968745 L 93.361673,16.573629 Z M 88.227754,9.7432852 86.676418,5.2790079 Q 86.587132,4.9888299 86.419722,4.4642773 86.252312,3.9285641 86.084901,3.3816901 85.917491,2.8236554 85.805884,2.4441919 85.694277,2.9017803 85.526866,3.4709756 85.370617,4.0290103 85.214367,4.5200808 85.069278,5.0111513 84.991153,5.2790079 l -1.562497,4.4642773 z"
           style="font-weight:600;font-family:'Open Sans';-inkscape-font-specification:'Open Sans Semi-Bold';fill:#000000;fill-opacity:1"
           id="path594" /><path
           d="M 103.98665,16.573629 99.288,2.9464231 h -0.100446 q 0.03348,0.4575884 0.07812,1.2499976 0.04464,0.7924092 0.07813,1.6964254 0.03348,0.9040161 0.03348,1.7299074 v 8.9508755 h -2.43303 V 0.25669602 h 3.761156 l 4.52008,13.02452898 h 0.067 l 4.67633,-13.02452898 h 3.75 V 16.573629 h -2.5558 V 7.4888252 q 0,-0.7477665 0.0223,-1.6183005 0.0335,-0.8705341 0.067,-1.6517826 0.0446,-0.7812485 0.067,-1.2499976 h -0.0893 L 106.3528,16.573629 Z"
           style="font-weight:600;font-family:'Open Sans';-inkscape-font-specification:'Open Sans Semi-Bold';fill:#000000;fill-opacity:1"
           id="path596" /></g><g
         aria-label="Validator"
         id="text381-7"
         style="font-size:22.8571px;letter-spacing:1.69286px;word-spacing:0.0214286px;fill:#000000;stroke-width:0.714286"
         transform="matrix(0.56910796,0,0,0.56804207,351.5745,298.43258)"><g
           aria-label="Test Suite"
           transform="scale(0.9990631,1.0009378)"
           id="text434"
           style="font-weight:600;font-size:30.5367px;font-family:'Open Sans';-inkscape-font-specification:'Open Sans Semi-Bold';stroke-width:0.285328"><text
             xml:space="preserve"
             style="font-weight:600;font-size:31.7733px;font-family:'Open Sans';-inkscape-font-specification:'Open Sans Semi-Bold';fill:#000000;stroke-width:0.296882"
             x="-6.1978941"
             y="-33.26062"
             id="text442"><tspan
               sodipodi:role="line"
               id="tspan440"
               style="stroke-width:0.296882"
               x="-6.1978941"
               y="-33.26062">Testing Tool</tspan></text></g></g></g><path
       style="fill:#000000;fill-opacity:1;stroke:none;stroke-width:0.168491"
       d="m 67.990365,0.06403333 c -2.24586,0.38039 -4.19426,2.16553997 -6.06568,3.35356997 -3.36277,2.1347 -6.8389,4.13905 -10.44647,5.83357 -11.04444,5.1878397 -22.61305,8.4395497 -34.5407,10.8225197 -3.19376,0.63808 -6.40102,1.19781 -9.6039601,1.78601 -2.75818,0.50665 -5.41912,1.17523 -6.60372999,4.04379 -1.01801,2.46519 -0.4729,5.80553 -0.4729,8.42456 v 17.0176 c 0,8.16458 -0.84232,16.86529 0.52334,24.93669 C 4.8293349,100.21364 19.903495,120.55137 39.515355,134.3016 c 6.73625,4.72297 13.72474,9.05791 21.06138,12.78713 2.62343,1.33361 6.01735,3.74337 9.09852,3.22408 2.88644,-0.48644 5.52687,-2.24279 8.08758,-3.5555 5.54266,-2.84177 10.99019,-5.97032 16.17515,-9.42506 20.970055,-13.97247 38.120435,-34.08324 42.962725,-59.364997 1.42169,-7.42338 0.67649,-15.38408 0.67649,-22.91479 v -21.22989 c 0,-2.80572 0.70967,-6.66955 -0.9872,-9.08841 -2.35042,-3.35062 -8.29345,-3.37252 -11.98661,-4.03874 -9.49399,-1.71288 -18.9192,-3.89905 -27.969565,-7.27646 -6.70422,-2.50209 -13.20714,-5.6392297 -19.37643,-9.2569597 -2.60859,-1.52972 -6.02646,-4.64682997 -9.26703,-4.09796997 M 102.53106,37.192393 c -2.14964,3.49148 -5.943915,6.43485 -8.741705,9.43551 -0.80182,0.86015 -2.04578,2.88187 -3.25439,3.12939 -1.14876,0.2352 -2.9528,-1.88778 -3.84211,-2.50362 -2.92598,-2.02576 -6.15547,-3.64193 -9.60397,-4.55886 -15.27475,-4.06148 -31.64145,4.46838 -38.00064,18.76031 -3.08608,6.93594 -3.71526,15.31366 -1.43775,22.57781 4.80651,15.33017 20.96045,25.940227 36.911,23.140237 4.25393,-0.74675 8.34994,-2.47142 11.96286,-4.81884 7.59359,-4.933587 13.09028,-13.143827 14.824005,-22.028197 0.7859,-4.02711 0.48577,-8.09853 1.0142,-12.13136 -3.930555,3.13326 -7.353835,7.30173 -10.806335,10.95192 -3.7769,3.9929 -7.81126,7.72431 -11.51066,11.79438 -2.85306,3.13882 -6.77974,8.51167 -11.38125,8.74469 -4.02596,0.20388 -6.49566,-2.08271 -9.26703,-4.66771 -3.19491,-2.9801 -6.24208,-6.11791 -9.43546,-9.09852 -2.22918,-2.08053 -4.99073,-4.22862 -6.6974,-6.77284 -1.86015,-2.77286 -1.12131,-6.83552 1.49117,-8.8655 5.53171,-4.29855 10.96439,2.83049 14.47319,6.33814 l 2.89758,2.88659 c 2.01107,2.02779 4.49179,4.7998 7.38039,2.70107 3.86994,-2.81177 7.06791,-6.92683 10.44648,-10.30542 6.66671,-6.66669 13.41556,-13.3263 19.84875,-20.21894 3.513185,-3.76409 8.387645,-10.59388 14.184775,-6.75262 3.81262,2.52619 2.63146,5.74555 2.38195,9.44848 -0.27765,4.11691 -0.1899,8.34065 -0.1899,12.46835 0,4.1196 -0.17455,8.08858 -1.05157,12.13136 -3.79728,17.50438 -15.647925,31.037577 -30.961715,39.810747 -3.54338,2.02999 -7.23284,3.78904 -10.78348,5.80251 -1.24899,0.70833 -3.21141,2.32365 -4.71773,2.13073 -1.38483,-0.17758 -2.84428,-1.3791 -4.04379,-2.04531 -2.78754,-1.5481 -5.59036,-3.08053 -8.42458,-4.54168 -15.88922,-8.19204 -28.96918,-22.308737 -33.16714,-39.977557 -1.37031,-5.76779 -1.20505,-11.6365 -1.20505,-17.52308 v -15.3327 c 0,-1.83739 -0.50105,-4.64496 0.82544,-6.13644 1.32789,-1.49301 4.2433,-1.67127 6.08275,-2.1422 4.68487,-1.19949 9.35254,-2.54102 13.98475,-3.92972 5.73932,-1.72063 11.47003,-3.89181 16.8491,-6.53679 1.96139,-0.96444 3.94151,-1.88608 5.89717,-2.86384 0.96714,-0.48357 2.09386,-1.26671 3.20135,-1.32198 1.20186,-0.0602 2.50262,0.88828 3.53834,1.40623 2.33814,1.16899 4.68723,2.30361 7.07663,3.3651 7.47827,3.32197 15.33621,5.97656 23.251775,8.05017 m -18.534045,18.53403 v 0.16849 c -4.10263,4.10259 -8.00536,8.36727 -11.93274,12.63684 -1.01464,1.10311 -3.00151,4.06282 -4.74791,3.78061 -1.88218,-0.3043 -3.7855,-3.01684 -5.05474,-4.28609 -3.75664,-3.75668 -6.99741,-7.15396 -12.6368,-6.57115 3.72111,-8.48033 14.49847,-12.606 23.25178,-11.02371 4.13829,0.74811 7.85354,2.69738 11.12041,5.29501 z"
       id="path308" /></g><g
     transform="matrix(0.00982583,0,0,-0.00982583,21.216504,53.28327)"
     fill="#000000"
     stroke="none"
     id="g441"
     style="fill:#49a7f7;fill-opacity:1"><path
       d="m 3980,3308 c -30,-5 -80,-20 -110,-35 -62,-31 -146,-113 -705,-688 -679,-700 -1540,-1562 -1581,-1583 -57,-29 -95,-34 -147,-21 -69,17 -121,58 -336,271 -454,448 -502,493 -573,527 -60,30 -75,33 -150,33 -46,-1 -102,-8 -124,-16 C 42,1722 -61,1469 38,1267 66,1211 105,1169 347,934 944,355 1178,133 1230,99 1388,-4 1560,-23 1705,45 c 78,38 163,114 405,365 124,129 430,443 680,699 251,256 503,515 560,575 58,60 240,247 405,415 599,611 640,655 655,711 18,68 14,170 -11,236 -64,174 -245,287 -419,262 z"
       id="path439"
       style="fill:#49a7f7;fill-opacity:1" /></g></g></svg>
