<?xml version="1.0" encoding="UTF-8" standalone="no"?>
<!-- Generator: Adobe Illustrator 24.2.2, SVG Export Plug-In . SVG Version: 6.00 Build 0) -->

<svg
   version="1.1"
   id="Layer_1"
   x="0px"
   y="0px"
   viewBox="0 0 139.66436 52.857144"
   xml:space="preserve"
   width="195.53011"
   height="74"
   sodipodi:docname="logo.svg"
   inkscape:version="1.2.2 (732a01da63, 2022-12-09)"
   xmlns:inkscape="http://www.inkscape.org/namespaces/inkscape"
   xmlns:sodipodi="http://sodipodi.sourceforge.net/DTD/sodipodi-0.dtd"
   xmlns:xlink="http://www.w3.org/1999/xlink"
   xmlns="http://www.w3.org/2000/svg"
   xmlns:svg="http://www.w3.org/2000/svg"><sodipodi:namedview
   id="namedview61"
   pagecolor="#ffffff"
   bordercolor="#000000"
   borderopacity="0.25"
   inkscape:showpageshadow="2"
   inkscape:pageopacity="0.0"
   inkscape:pagecheckerboard="0"
   inkscape:deskcolor="#d1d1d1"
   showgrid="false"
   inkscape:zoom="7.9999996"
   inkscape:cx="112.06251"
   inkscape:cy="35.750002"
   inkscape:window-width="4480"
   inkscape:window-height="2396"
   inkscape:window-x="3572"
   inkscape:window-y="-12"
   inkscape:window-maximized="1"
   inkscape:current-layer="text381-7" /><defs
   id="defs67"><linearGradient
     id="linearGradient1483"><stop
       style="stop-color:#00a0ff;stop-opacity:1;"
       offset="0"
       id="stop1479" /><stop
       style="stop-color:#00a0ff;stop-opacity:0;"
       offset="1"
       id="stop1481" /></linearGradient><linearGradient
     xlink:href="#linearGradient1483"
     id="linearGradient1485"
     x1="176.83051"
     y1="-9.6101971"
     x2="285.08948"
     y2="-9.6101971"
     gradientUnits="userSpaceOnUse" /><linearGradient
     xlink:href="#linearGradient1483"
     id="linearGradient1487"
     x1="177.42062"
     y1="10.464906"
     x2="285.65118"
     y2="10.464906"
     gradientUnits="userSpaceOnUse" /></defs> <style
   type="text/css"
   id="style2"> .st0{fill:#00A0FF;} </style>     <g
   id="g2354"
   transform="scale(0.66057471)"><g
     id="g1405"
     transform="scale(0.53208058)"><g
       id="g18329"
       transform="matrix(1.3496145,0,0,1.3577221,239.89273,19.178864)"><g
         id="g1926"
         transform="translate(15.486621,1.337334)"><g
           id="g1133"
           transform="matrix(1.4833581,0,0,1.4833581,-80.604268,-1.3530405)"><g
             id="g10"> <path
   d="m 12.52,0.27 c 3.21,0 8.44,1.38 8.44,4.78 V 6.91 H 18.84 V 5.66 c 0,-2.12 -3.66,-3.27 -6.26,-3.27 -5.01,0 -8.86,3.91 -8.86,9.37 0,5.39 3.82,9.72 8.95,9.72 4.65,0 7.38,-3.18 7.38,-3.18 l 1.28,1.64 c 0,0 -3.11,3.66 -8.7,3.66 C 6.02,23.6 1.37,18.34 1.37,11.76 1.39,5.24 6.17,0.27 12.52,0.27 Z"
   id="path4" /> <path
   d="m 33.61,13.27 h 0.9 v -0.19 c 0,-3.37 -1.22,-4.56 -4.17,-4.56 -0.8,0 -3.14,0.22 -3.14,1.41 v 1.03 H 25.11 V 9.42 c 0,-2.25 3.85,-2.73 5.26,-2.73 5.1,0 6.32,2.73 6.32,6.19 v 7.73 c 0,0.48 0.26,0.71 0.71,0.71 h 1.35 v 1.89 h -2.21 c -1.38,0 -1.93,-0.61 -1.93,-1.93 0,-0.71 0.03,-1.19 0.03,-1.19 h -0.06 c 0.03,0 -1.32,3.5 -5.36,3.5 -2.7,0 -5.49,-1.57 -5.49,-4.78 0,-5.35 7.09,-5.54 9.88,-5.54 z m -4.04,8.47 c 3.08,0 4.94,-3.21 4.94,-6 V 15 h -0.93 c -2.54,0 -7.61,0.06 -7.61,3.69 0,1.51 1.19,3.05 3.6,3.05 z"
   id="path6" /> <path
   d="M 42.18,3.25 C 42.18,2.8 41.92,2.54 41.47,2.54 H 40.12 V 0.66 h 2.28 c 1.38,0 1.96,0.58 1.96,1.96 v 18 c 0,0.48 0.26,0.71 0.71,0.71 h 1.35 v 1.89 h -2.28 c -1.38,0 -1.96,-0.58 -1.96,-1.96 z"
   id="path8" /> </g><g
             id="g14"
             style="fill:#49a7f7;fill-opacity:1;stroke-width:1.00164;stroke-dasharray:none"> <path
   class="st0"
   d="m 50.97,28 c 1.41,0 2.37,-1.16 2.98,-2.63 L 54.91,23.16 49.24,9.7 C 48.98,9.12 48.7,8.96 48.12,8.96 H 47.8 V 7.07 h 1 c 1.44,0 1.89,0.32 2.47,1.77 l 4.14,10.08 c 0.32,0.8 0.58,1.73 0.58,1.73 h 0.06 c 0,0 0.22,-0.93 0.55,-1.73 L 60.58,8.84 c 0.54,-1.44 1.03,-1.77 2.5,-1.77 h 0.99 v 1.89 h -0.32 c -0.58,0 -0.9,0.16 -1.12,0.74 l -6.96,16.88 c -0.83,2.05 -2.47,3.37 -4.62,3.37 -2.25,0 -3.5,-1.57 -3.5,-1.57 l 1.03,-1.6 C 48.57,26.81 49.59,28 50.97,28 Z"
   id="path12"
   style="fill:#49a7f7;fill-opacity:1;stroke-width:1.00164;stroke-dasharray:none" /> </g><g
             id="g22"> <path
   d="m 67.37,9.67 c 0,-0.45 -0.26,-0.71 -0.71,-0.71 H 65.31 V 7.07 h 2.21 c 1.38,0 1.92,0.58 1.92,1.7 0,0.64 -0.03,1.09 -0.03,1.09 h 0.06 c 0,0 1.28,-3.18 5.55,-3.18 4.33,0 7.03,3.47 7.03,8.47 0,5.1 -3.05,8.44 -7.22,8.44 -3.95,0 -5.29,-3.05 -5.29,-3.05 h -0.06 c 0,0 0.06,0.58 0.06,1.41 v 7.67 H 67.36 V 9.67 Z m 7.25,12 c 2.86,0 5.2,-2.41 5.2,-6.51 0,-3.95 -2.09,-6.48 -5.1,-6.48 -2.7,0 -5.23,1.93 -5.23,6.51 0,3.24 1.76,6.48 5.13,6.48 z"
   id="path16" /> <path
   d="m 85.6,19.27 c 0,0 1.8,2.44 4.97,2.44 1.8,0 3.4,-0.87 3.4,-2.57 0,-3.53 -9.05,-2.89 -9.05,-8.09 0,-2.92 2.5,-4.36 5.74,-4.36 1.64,0 4.91,0.64 4.91,2.92 v 1.38 h -2.05 v -0.77 c 0,-1.19 -1.73,-1.64 -2.79,-1.64 -2.25,0 -3.59,0.77 -3.59,2.34 0,3.63 9.05,2.79 9.05,8.15 0,2.7 -2.44,4.52 -5.65,4.52 -4.2,0 -6.19,-2.82 -6.19,-2.82 z"
   id="path18" /> <path
   d="m 107.33,6.69 c 4.72,0 8.54,3.59 8.54,8.38 0,4.88 -3.82,8.54 -8.5,8.54 -4.72,0 -8.54,-3.66 -8.54,-8.54 -0.01,-4.79 3.81,-8.38 8.5,-8.38 z m 0.03,14.95 c 3.43,0 6.26,-2.82 6.26,-6.58 0,-3.66 -2.82,-6.39 -6.26,-6.39 -3.47,0 -6.29,2.73 -6.29,6.39 0,3.76 2.82,6.58 6.29,6.58 z"
   id="path20" /> </g></g><g
           aria-label="®"
           transform="matrix(0.05347351,0,0,0.0531542,89.383702,14.833395)"
           id="text403"
           style="font-weight:600;font-size:162.281px;font-family:'Open Sans';-inkscape-font-specification:'Open Sans Semi-Bold';fill:#49a7f7;stroke:#000000;stroke-width:1.51631"><path
             d="M 136.69731,-23.094444 V -94.3301 h 21.15675 q 13.0744,0 19.25503,5.467475 6.18062,5.388237 6.18062,15.847755 0,7.686161 -3.8827,12.123532 -3.8827,4.437371 -8.87474,6.418341 l 18.77959,31.378553 h -13.86679 l -15.92699,-27.73357 h -10.45952 v 27.73357 z m 12.36125,-37.796894 h 8.39931 q 6.49758,0 9.90485,-3.24879 3.4865,-3.248789 3.4865,-8.557787 0,-5.942908 -3.16955,-8.557788 -3.16955,-2.614879 -10.38028,-2.614879 h -8.24083 z m 10.14256,61.88548119 q -12.91592,0 -23.85087,-4.43737129 -10.85571,-4.4373712 -18.93806,-12.4404869 -8.00312,-8.003116 -12.44049,-18.858828 -4.358133,-10.934951 -4.358133,-23.771632 0,-12.678203 4.437373,-23.533915 4.51661,-10.855712 12.59896,-18.93807 8.08236,-8.08235 18.93807,-12.59896 10.85571,-4.51661 23.61315,-4.51661 12.44049,0 23.21696,4.43737 10.85572,4.43737 19.01731,12.51973 8.16159,8.003112 12.75744,18.858823 4.59585,10.855712 4.59585,23.771632 0,12.836681 -4.43737,23.771632 -4.35813,10.855712 -12.44049,18.858828 -8.00311,8.0031157 -18.93806,12.4404869 -10.85572,4.43737129 -23.77164,4.43737129 z m 0,-9.27093639 q 10.30104,0 19.25503,-3.6449838 8.95398,-3.724222 15.76851,-10.459518 6.81454,-6.814534 10.618,-16.006232 3.8827,-9.191697 3.8827,-20.126648 0,-10.380279 -3.72423,-19.492738 -3.64498,-9.112459 -10.38028,-16.085471 -6.65605,-6.973016 -15.68927,-10.855716 -9.03322,-3.96193 -19.73046,-3.96193 -10.69723,0 -19.80969,3.72422 -9.03322,3.72422 -15.76852,10.538755 -6.73529,6.735296 -10.45951,15.926993 -3.64499,9.191698 -3.64499,20.205887 0,10.697234 3.64499,19.888932 3.64498,9.112459 10.30104,15.926993 6.65605,6.814535 15.76851,10.617996 9.11246,3.8034608 19.96817,3.8034608 z"
             style="fill:#000000;stroke:none"
             id="path1135" /></g></g></g><text
       xml:space="preserve"
       style="font-size:8.57143px;fill:#000000;stroke-width:0.714286"
       x="162.61522"
       y="67.148087"
       id="text323"><tspan
         sodipodi:role="line"
         id="tspan321"
         style="stroke-width:0.714286"
         x="162.61522"
         y="67.148087" /></text><g
       id="g1128"
       transform="matrix(2.1276141,0,0,2.1276141,-586.18869,-476.96737)"><g
         aria-label="Validator"
         id="text381-7"
         style="font-size:22.8571px;letter-spacing:1.69286px;word-spacing:0.0214286px;fill:#000000;stroke-width:0.714286"
         transform="matrix(0.56910796,0,0,0.56804207,351.5745,298.43258)"><g
           aria-label="Test Suite"
           transform="scale(0.9990631,1.0009378)"
           id="text434"
           style="font-weight:600;font-size:30.5367px;font-family:'Open Sans';-inkscape-font-specification:'Open Sans Semi-Bold';stroke-width:0.285328"><g
             aria-label="Testing Tool"
             id="text442"
             style="font-size:31.7733px;stroke-width:0.296882"><path
               d="M 4.6466063,-33.26062 H 0.90765838 V -52.777618 H -5.7324649 v -3.164919 H 11.271215 v 3.164919 H 4.6466063 Z"
               id="path327" /><path
               d="m 22.893231,-50.760758 q 2.296117,0 3.940634,0.946373 1.644516,0.946372 2.528832,2.683975 0.884315,1.737602 0.884315,4.157834 v 1.954803 H 18.781939 q 0.06206,2.497803 1.334231,3.847548 1.287687,1.349744 3.599319,1.349744 1.644516,0 2.947718,-0.310286 1.318716,-0.3258 2.715004,-0.946373 v 2.963233 q -1.287688,0.605058 -2.621918,0.884315 -1.33423,0.279258 -3.195947,0.279258 -2.528832,0 -4.452606,-0.977401 -1.90826,-0.992916 -2.994261,-2.947719 -1.070488,-1.954802 -1.070488,-4.855978 0,-2.885661 0.977402,-4.902521 0.977401,-2.016859 2.746032,-3.071832 1.768631,-1.054973 4.126806,-1.054973 z m 0,2.746032 q -1.722088,0 -2.792576,1.11703 -1.054972,1.11703 -1.241144,3.273519 h 7.81921 q -0.01551,-1.287687 -0.4344,-2.280603 -0.403372,-0.992916 -1.241145,-1.551431 -0.822258,-0.558515 -2.109945,-0.558515 z"
               id="path329" /><path
               d="m 47.593808,-38.163141 q 0,1.691059 -0.822258,2.854632 -0.822258,1.163573 -2.404718,1.768631 -1.566945,0.589544 -3.847548,0.589544 -1.799659,0 -3.102861,-0.263743 -1.287688,-0.248229 -2.435746,-0.775716 v -3.149404 q 1.22563,0.57403 2.746032,0.992916 1.535916,0.418886 2.901175,0.418886 1.79966,0 2.59089,-0.558515 0.791229,-0.574029 0.791229,-1.520402 0,-0.558515 -0.3258,-0.992916 -0.310286,-0.449915 -1.179088,-0.915344 -0.853286,-0.480943 -2.513317,-1.148058 -1.629002,-0.651601 -2.746033,-1.303202 -1.11703,-0.651601 -1.691059,-1.566945 -0.574029,-0.930859 -0.574029,-2.373689 0,-2.280603 1.799659,-3.45969 1.815174,-1.194602 4.793921,-1.194602 1.582459,0 2.978747,0.3258 1.411802,0.310286 2.761547,0.915344 l -1.148059,2.746033 q -1.163573,-0.511972 -2.34266,-0.837773 -1.163573,-0.341315 -2.373689,-0.341315 -1.411802,0 -2.156489,0.434401 -0.729172,0.434401 -0.729172,1.241145 0,0.605058 0.356829,1.023944 0.356829,0.418886 1.22563,0.837772 0.884315,0.418887 2.45126,1.039459 1.535917,0.589544 2.652947,1.241144 1.132544,0.636087 1.737602,1.566945 0.605058,0.930859 0.605058,2.404718 z"
               id="path331" /><path
               d="m 59.603684,-35.898052 q 0.713658,0 1.411802,-0.124115 0.698143,-0.139628 1.272173,-0.3258 v 2.761546 q -0.605058,0.263744 -1.566945,0.449915 -0.961887,0.186172 -2.001346,0.186172 -1.458345,0 -2.621918,-0.480943 -1.163573,-0.496458 -1.846202,-1.69106 -0.68263,-1.194602 -0.68263,-3.304547 v -9.231013 h -2.34266 v -1.629002 l 2.513318,-1.287687 1.194601,-3.676891 h 2.296118 v 3.816519 h 4.918035 v 2.777061 h -4.918035 v 9.18447 q 0,1.303202 0.651601,1.939288 0.651601,0.636087 1.722088,0.636087 z"
               id="path333" /><path
               d="m 71.1171,-50.434958 v 17.174338 h -3.645862 v -17.174338 z m -1.799659,-6.578066 q 0.837772,0 1.44283,0.449915 0.620573,0.449915 0.620573,1.551431 0,1.086001 -0.620573,1.551431 -0.605058,0.449914 -1.44283,0.449914 -0.868801,0 -1.473859,-0.449914 -0.589544,-0.46543 -0.589544,-1.551431 0,-1.101516 0.589544,-1.551431 0.605058,-0.449915 1.473859,-0.449915 z"
               id="path335" /><path
               d="m 86.974522,-50.760758 q 2.901176,0 4.514663,1.504888 1.629003,1.489373 1.629003,4.79392 v 11.20133 h -3.645862 v -10.5187 q 0,-2.001346 -0.822259,-2.994261 -0.822258,-1.00843 -2.544346,-1.00843 -2.497803,0 -3.475205,1.535916 -0.961887,1.535917 -0.961887,4.452606 v 8.532869 h -3.645862 v -17.174338 h 2.839118 l 0.511972,2.327146 h 0.201686 q 0.558516,-0.899829 1.380774,-1.473859 0.837772,-0.589543 1.861717,-0.884315 1.039458,-0.294772 2.156488,-0.294772 z"
               id="path337" /><path
               d="m 104.80226,-25.627581 q -3.49072,0 -5.352439,-1.256659 -1.861717,-1.256659 -1.861717,-3.521748 0,-1.582459 0.992916,-2.683975 0.992915,-1.086001 2.83912,-1.504887 -0.69815,-0.310287 -1.21012,-0.961888 -0.496456,-0.667115 -0.496456,-1.473859 0,-0.961887 0.542996,-1.644516 0.54301,-0.68263 1.62901,-1.318716 -1.34975,-0.57403 -2.172006,-1.861717 -0.806744,-1.303202 -0.806744,-3.056318 0,-1.861717 0.79123,-3.164919 0.79123,-1.318716 2.31163,-2.001346 1.5204,-0.698143 3.67689,-0.698143 0.46543,0 1.00843,0.06206 0.55852,0.04654 1.02395,0.124114 0.48094,0.06206 0.72917,0.139629 h 5.94198 v 2.032374 l -2.91669,0.543001 q 0.41888,0.589544 0.66711,1.349745 0.24823,0.744686 0.24823,1.629002 0,2.668461 -1.8462,4.204377 -1.83069,1.520402 -5.05766,1.520402 -0.77572,-0.03103 -1.50489,-0.124114 -0.55852,0.341314 -0.85329,0.760201 -0.29477,0.403372 -0.29477,0.915344 0,0.418886 0.29477,0.682629 0.29477,0.248229 0.8688,0.372344 0.58955,0.124114 1.42732,0.124114 h 2.96323 q 2.82361,0 4.31298,1.194602 1.48937,1.194601 1.48937,3.506233 0,2.932204 -2.42023,4.514663 -2.42023,1.597974 -6.96592,1.597974 z m 0.13963,-2.559861 q 1.90826,0 3.21146,-0.372343 1.3032,-0.372344 1.97031,-1.070487 0.66712,-0.68263 0.66712,-1.629003 0,-0.837772 -0.41889,-1.287687 -0.41888,-0.449915 -1.25666,-0.620572 -0.83777,-0.170658 -2.07891,-0.170658 h -2.69949 q -1.00843,0 -1.78415,0.310286 -0.77571,0.325801 -1.21011,0.930859 -0.41889,0.605058 -0.41889,1.458345 0,1.179087 1.03946,1.815174 1.05497,0.636086 2.97875,0.636086 z m 0.71365,-13.373332 q 1.59798,0 2.37369,-0.868801 0.77572,-0.884316 0.77572,-2.482289 0,-1.737603 -0.80675,-2.606404 -0.79123,-0.868801 -2.35817,-0.868801 -1.53592,0 -2.34266,0.884315 -0.79123,0.884316 -0.79123,2.621918 0,1.566945 0.79123,2.451261 0.80674,0.868801 2.35817,0.868801 z"
               id="path339" /><path
               d="m 137.40733,-33.26062 h -3.73894 v -19.516998 h -6.64013 v -3.164919 h 17.00368 v 3.164919 h -6.62461 z"
               id="path341" /><path
               d="m 164.01617,-41.886575 q 0,2.140975 -0.55851,3.801005 -0.55852,1.660031 -1.62901,2.80809 -1.07048,1.132544 -2.57537,1.737602 -1.50489,0.589544 -3.39763,0.589544 -1.76864,0 -3.24249,-0.589544 -1.47386,-0.605058 -2.55987,-1.737602 -1.07048,-1.148059 -1.66003,-2.80809 -0.58954,-1.66003 -0.58954,-3.801005 0,-2.839118 0.9774,-4.809435 0.99292,-1.985831 2.82361,-3.02529 1.83068,-1.039458 4.35952,-1.039458 2.37368,0 4.18886,1.039458 1.81517,1.039459 2.83912,3.02529 1.02394,1.985832 1.02394,4.809435 z m -12.45799,0 q 0,1.877231 0.44992,3.211462 0.46543,1.33423 1.42731,2.047888 0.96189,0.698144 2.48229,0.698144 1.5204,0 2.48229,-0.698144 0.96189,-0.713658 1.4118,-2.047888 0.44992,-1.334231 0.44992,-3.211462 0,-1.877231 -0.44992,-3.180433 -0.44991,-1.318716 -1.4118,-2.001345 -0.96189,-0.698144 -2.4978,-0.698144 -2.26509,0 -3.30455,1.520402 -1.03946,1.520402 -1.03946,4.35952 z"
               id="path343" /><path
               d="m 185.10191,-41.886575 q 0,2.140975 -0.55852,3.801005 -0.55851,1.660031 -1.629,2.80809 -1.07048,1.132544 -2.57537,1.737602 -1.50489,0.589544 -3.39764,0.589544 -1.76863,0 -3.24249,-0.589544 -1.47385,-0.605058 -2.55986,-1.737602 -1.07048,-1.148059 -1.66003,-2.80809 -0.58954,-1.66003 -0.58954,-3.801005 0,-2.839118 0.9774,-4.809435 0.99292,-1.985831 2.8236,-3.02529 1.83069,-1.039458 4.35952,-1.039458 2.37369,0 4.18887,1.039458 1.81517,1.039459 2.83912,3.02529 1.02394,1.985832 1.02394,4.809435 z m -12.45799,0 q 0,1.877231 0.44992,3.211462 0.46543,1.33423 1.42731,2.047888 0.96189,0.698144 2.48229,0.698144 1.5204,0 2.48229,-0.698144 0.96189,-0.713658 1.4118,-2.047888 0.44992,-1.334231 0.44992,-3.211462 0,-1.877231 -0.44992,-3.180433 -0.44991,-1.318716 -1.4118,-2.001345 -0.96189,-0.698144 -2.4978,-0.698144 -2.26509,0 -3.30455,1.520402 -1.03946,1.520402 -1.03946,4.35952 z"
               id="path345" /><path
               d="m 194.645,-33.26062 h -3.66137 v -24.140261 h 3.66137 z"
               id="path347" /></g></g></g></g><path
       style="fill:#000000;fill-opacity:1;stroke:none;stroke-width:0.168491"
       d="m 67.990365,0.06403333 c -2.24586,0.38039 -4.19426,2.16553997 -6.06568,3.35356997 -3.36277,2.1347 -6.8389,4.13905 -10.44647,5.83357 -11.04444,5.1878397 -22.61305,8.4395497 -34.5407,10.8225197 -3.19376,0.63808 -6.40102,1.19781 -9.6039601,1.78601 -2.75818,0.50665 -5.41912,1.17523 -6.60372999,4.04379 -1.01801,2.46519 -0.4729,5.80553 -0.4729,8.42456 v 17.0176 c 0,8.16458 -0.84232,16.86529 0.52334,24.93669 C 4.8293349,100.21364 19.903495,120.55137 39.515355,134.3016 c 6.73625,4.72297 13.72474,9.05791 21.06138,12.78713 2.62343,1.33361 6.01735,3.74337 9.09852,3.22408 2.88644,-0.48644 5.52687,-2.24279 8.08758,-3.5555 5.54266,-2.84177 10.99019,-5.97032 16.17515,-9.42506 20.970055,-13.97247 38.120435,-34.08324 42.962725,-59.364997 1.42169,-7.42338 0.67649,-15.38408 0.67649,-22.91479 v -21.22989 c 0,-2.80572 0.70967,-6.66955 -0.9872,-9.08841 -2.35042,-3.35062 -8.29345,-3.37252 -11.98661,-4.03874 -9.49399,-1.71288 -18.9192,-3.89905 -27.969565,-7.27646 -6.70422,-2.50209 -13.20714,-5.6392297 -19.37643,-9.2569597 -2.60859,-1.52972 -6.02646,-4.64682997 -9.26703,-4.09796997 M 102.53106,37.192393 c -2.14964,3.49148 -5.943915,6.43485 -8.741705,9.43551 -0.80182,0.86015 -2.04578,2.88187 -3.25439,3.12939 -1.14876,0.2352 -2.9528,-1.88778 -3.84211,-2.50362 -2.92598,-2.02576 -6.15547,-3.64193 -9.60397,-4.55886 -15.27475,-4.06148 -31.64145,4.46838 -38.00064,18.76031 -3.08608,6.93594 -3.71526,15.31366 -1.43775,22.57781 4.80651,15.33017 20.96045,25.940227 36.911,23.140237 4.25393,-0.74675 8.34994,-2.47142 11.96286,-4.81884 7.59359,-4.933587 13.09028,-13.143827 14.824005,-22.028197 0.7859,-4.02711 0.48577,-8.09853 1.0142,-12.13136 -3.930555,3.13326 -7.353835,7.30173 -10.806335,10.95192 -3.7769,3.9929 -7.81126,7.72431 -11.51066,11.79438 -2.85306,3.13882 -6.77974,8.51167 -11.38125,8.74469 -4.02596,0.20388 -6.49566,-2.08271 -9.26703,-4.66771 -3.19491,-2.9801 -6.24208,-6.11791 -9.43546,-9.09852 -2.22918,-2.08053 -4.99073,-4.22862 -6.6974,-6.77284 -1.86015,-2.77286 -1.12131,-6.83552 1.49117,-8.8655 5.53171,-4.29855 10.96439,2.83049 14.47319,6.33814 l 2.89758,2.88659 c 2.01107,2.02779 4.49179,4.7998 7.38039,2.70107 3.86994,-2.81177 7.06791,-6.92683 10.44648,-10.30542 6.66671,-6.66669 13.41556,-13.3263 19.84875,-20.21894 3.513185,-3.76409 8.387645,-10.59388 14.184775,-6.75262 3.81262,2.52619 2.63146,5.74555 2.38195,9.44848 -0.27765,4.11691 -0.1899,8.34065 -0.1899,12.46835 0,4.1196 -0.17455,8.08858 -1.05157,12.13136 -3.79728,17.50438 -15.647925,31.037577 -30.961715,39.810747 -3.54338,2.02999 -7.23284,3.78904 -10.78348,5.80251 -1.24899,0.70833 -3.21141,2.32365 -4.71773,2.13073 -1.38483,-0.17758 -2.84428,-1.3791 -4.04379,-2.04531 -2.78754,-1.5481 -5.59036,-3.08053 -8.42458,-4.54168 -15.88922,-8.19204 -28.96918,-22.308737 -33.16714,-39.977557 -1.37031,-5.76779 -1.20505,-11.6365 -1.20505,-17.52308 v -15.3327 c 0,-1.83739 -0.50105,-4.64496 0.82544,-6.13644 1.32789,-1.49301 4.2433,-1.67127 6.08275,-2.1422 4.68487,-1.19949 9.35254,-2.54102 13.98475,-3.92972 5.73932,-1.72063 11.47003,-3.89181 16.8491,-6.53679 1.96139,-0.96444 3.94151,-1.88608 5.89717,-2.86384 0.96714,-0.48357 2.09386,-1.26671 3.20135,-1.32198 1.20186,-0.0602 2.50262,0.88828 3.53834,1.40623 2.33814,1.16899 4.68723,2.30361 7.07663,3.3651 7.47827,3.32197 15.33621,5.97656 23.251775,8.05017 m -18.534045,18.53403 v 0.16849 c -4.10263,4.10259 -8.00536,8.36727 -11.93274,12.63684 -1.01464,1.10311 -3.00151,4.06282 -4.74791,3.78061 -1.88218,-0.3043 -3.7855,-3.01684 -5.05474,-4.28609 -3.75664,-3.75668 -6.99741,-7.15396 -12.6368,-6.57115 3.72111,-8.48033 14.49847,-12.606 23.25178,-11.02371 4.13829,0.74811 7.85354,2.69738 11.12041,5.29501 z"
       id="path308" /></g><g
     transform="matrix(0.00982583,0,0,-0.00982583,21.216504,53.28327)"
     fill="#000000"
     stroke="none"
     id="g441"
     style="fill:#49a7f7;fill-opacity:1"><path
       d="m 3980,3308 c -30,-5 -80,-20 -110,-35 -62,-31 -146,-113 -705,-688 -679,-700 -1540,-1562 -1581,-1583 -57,-29 -95,-34 -147,-21 -69,17 -121,58 -336,271 -454,448 -502,493 -573,527 -60,30 -75,33 -150,33 -46,-1 -102,-8 -124,-16 C 42,1722 -61,1469 38,1267 66,1211 105,1169 347,934 944,355 1178,133 1230,99 1388,-4 1560,-23 1705,45 c 78,38 163,114 405,365 124,129 430,443 680,699 251,256 503,515 560,575 58,60 240,247 405,415 599,611 640,655 655,711 18,68 14,170 -11,236 -64,174 -245,287 -419,262 z"
       id="path439"
       style="fill:#49a7f7;fill-opacity:1" /></g></g></svg>
